<?xml version="1.0" standalone="no"?>
<!DOCTYPE svg PUBLIC "-//W3C//DTD SVG 20010904//EN"
 "http://www.w3.org/TR/2001/REC-SVG-20010904/DTD/svg10.dtd">
<svg version="1.0" xmlns="http://www.w3.org/2000/svg"
 width="4725.000000pt" height="4725.000000pt" viewBox="0 0 4725.000000 4725.000000"
 preserveAspectRatio="xMidYMid meet">

<g transform="translate(0.000000,4725.000000) scale(0.100000,-0.100000)"
fill="#000000" stroke="none">
<path d="M12215 37744 c-72 -7 -159 -27 -190 -43 -53 -27 -157 -51 -270 -61
-60 -6 -126 -15 -145 -20 -19 -6 -93 -13 -165 -16 -71 -3 -152 -10 -180 -15
-76 -16 -177 -57 -210 -87 -75 -68 -131 -91 -270 -111 -44 -7 -115 -23 -157
-37 -64 -21 -81 -31 -98 -59 -28 -46 -94 -103 -127 -111 -16 -4 -39 -15 -53
-24 -14 -10 -43 -25 -65 -34 -22 -9 -54 -31 -72 -49 -51 -51 -88 -77 -145 -96
-102 -36 -140 -62 -187 -132 -30 -43 -62 -76 -96 -97 -65 -41 -96 -74 -130
-137 -33 -63 -82 -125 -99 -125 -25 0 -46 -37 -94 -163 -49 -129 -83 -180
-126 -191 -41 -10 -116 -154 -116 -223 0 -40 -50 -130 -91 -162 -74 -60 -103
-155 -114 -374 -4 -102 -31 -247 -52 -280 -3 -5 -9 -23 -13 -41 -5 -17 -20
-62 -35 -101 -84 -225 -77 -797 14 -1045 60 -166 86 -291 101 -490 12 -171 37
-236 110 -284 45 -30 74 -86 83 -166 7 -56 22 -106 46 -150 17 -31 62 -80 74
-80 17 0 76 -52 83 -73 15 -52 110 -238 124 -243 26 -9 100 -110 162 -223 10
-19 34 -39 60 -51 48 -21 125 -91 149 -136 11 -21 51 -49 139 -98 76 -42 141
-86 169 -115 36 -36 65 -54 131 -79 106 -40 174 -83 192 -119 18 -38 86 -71
182 -88 89 -16 215 -54 268 -81 18 -9 45 -31 61 -50 15 -18 51 -44 81 -59 47
-23 71 -27 212 -35 161 -9 319 -30 564 -77 107 -21 176 -27 330 -31 192 -4
235 -1 397 32 39 8 149 19 245 25 591 36 752 59 819 116 17 14 35 25 40 25 6
0 22 13 35 30 30 35 175 86 288 100 109 14 150 35 190 99 27 42 139 104 220
121 50 11 93 38 161 101 22 20 51 40 64 44 13 4 57 25 97 47 55 29 78 48 90
73 25 52 81 112 134 142 33 19 58 43 79 78 35 58 88 111 144 145 31 18 46 40
89 129 27 58 63 120 79 136 43 44 80 104 96 155 35 108 82 198 113 218 56 35
93 105 104 196 13 102 82 326 110 355 13 14 34 51 46 81 65 163 70 219 69 765
-2 488 -9 642 -35 735 -21 77 -56 162 -75 183 -9 9 -21 27 -27 40 -15 32 -68
219 -86 309 -20 97 -59 179 -96 200 -18 10 -39 38 -55 75 -31 66 -65 168 -65
192 0 9 -14 44 -32 78 -22 44 -40 65 -59 72 -18 6 -35 25 -48 53 -54 110 -82
154 -122 185 -23 18 -46 33 -51 33 -14 0 -77 71 -98 110 -18 34 -58 70 -111
100 -30 17 -95 91 -104 119 -6 20 -65 70 -110 93 -33 17 -90 83 -104 121 -12
31 -119 83 -188 91 -83 10 -136 38 -170 88 -42 62 -130 105 -253 122 -123 18
-136 24 -193 85 -26 28 -62 57 -80 64 -46 20 -212 47 -377 63 -36 3 -132 17
-214 30 -82 14 -182 29 -223 34 -41 5 -89 16 -106 25 -89 42 -127 47 -377 50
-135 2 -263 1 -285 -1z"/>
<path d="M30475 28980 c-346 -5 -388 -7 -465 -27 -47 -12 -112 -27 -145 -34
-33 -7 -80 -22 -105 -35 -81 -41 -319 -92 -485 -104 -182 -12 -202 -16 -288
-46 -83 -29 -116 -46 -155 -79 -45 -38 -147 -72 -238 -79 -137 -12 -242 -53
-293 -116 -39 -49 -108 -85 -179 -94 -65 -8 -190 -61 -215 -90 -45 -53 -64
-69 -106 -90 -25 -13 -69 -26 -98 -29 -28 -3 -62 -12 -75 -19 -68 -37 -101
-66 -129 -112 -36 -57 -53 -73 -89 -82 -14 -4 -36 -15 -50 -24 -14 -9 -45 -25
-70 -34 -25 -10 -59 -32 -77 -49 -52 -52 -97 -85 -129 -93 -16 -4 -55 -20 -87
-37 -46 -23 -69 -43 -108 -98 -29 -39 -64 -75 -83 -84 -52 -25 -104 -73 -141
-130 -21 -34 -54 -66 -87 -88 -61 -39 -94 -74 -132 -135 -15 -24 -49 -57 -80
-77 -57 -36 -86 -67 -131 -137 -17 -27 -46 -55 -74 -71 -59 -33 -92 -69 -127
-137 -38 -75 -72 -118 -106 -136 -28 -14 -55 -65 -114 -209 -26 -64 -70 -119
-104 -130 -21 -7 -34 -28 -91 -148 -34 -72 -64 -97 -117 -97 -16 0 -37 9 -46
19 -46 51 -45 31 -46 1228 0 751 -4 1148 -10 1181 -10 42 -16 52 -53 73 l-42
24 -3025 3 c-2700 2 -3029 0 -3071 -13 -52 -17 -85 -47 -93 -85 -5 -22 -20
-16721 -16 -18135 1 -607 2 -621 52 -742 21 -51 23 -53 75 -64 41 -10 71 -10
131 -1 105 16 5693 17 5808 1 154 -21 204 18 230 180 12 73 14 935 14 5671 0
3611 4 5627 10 5705 16 186 49 361 76 399 13 17 29 42 36 56 7 14 22 37 33 51
13 15 32 73 49 145 44 190 68 257 94 270 55 27 90 75 122 167 58 170 80 215
117 243 23 18 47 53 74 109 47 101 76 136 139 172 26 15 56 41 65 57 38 67
100 138 135 156 39 20 90 73 90 94 0 15 102 116 117 116 20 0 73 51 92 89 20
39 69 82 142 124 28 17 63 51 92 92 39 54 58 70 110 95 35 16 74 30 86 30 30
0 136 66 156 97 23 34 209 113 268 113 50 0 157 53 185 92 37 51 164 83 388
98 194 12 223 16 349 43 91 20 130 22 420 22 293 0 330 -2 440 -23 66 -13 210
-30 320 -37 304 -22 358 -36 438 -115 50 -49 114 -80 167 -80 50 0 143 -31
191 -63 27 -18 62 -53 77 -78 23 -35 40 -49 78 -64 27 -10 81 -33 121 -52 40
-18 76 -33 81 -33 5 0 31 -27 57 -60 26 -33 52 -60 57 -60 4 0 23 -14 40 -30
18 -17 47 -38 66 -47 22 -10 44 -34 63 -67 25 -44 83 -110 156 -177 11 -11 33
-46 48 -77 16 -31 34 -68 41 -82 8 -14 23 -46 35 -72 13 -30 35 -56 59 -72 48
-32 84 -78 105 -136 9 -25 27 -74 40 -110 29 -80 54 -130 65 -130 5 0 25 -20
44 -46 37 -49 59 -123 77 -266 13 -106 55 -216 88 -236 17 -9 38 -41 59 -87
31 -70 33 -83 47 -292 9 -120 20 -245 25 -278 15 -93 72 -349 104 -465 39
-142 48 -195 55 -335 4 -82 7 -2490 5 -5350 -1 -3567 1 -5225 8 -5280 11 -80
15 -89 82 -167 21 -24 99 -33 172 -19 46 8 804 11 2896 10 1558 0 2872 -4
2919 -7 50 -4 102 -3 122 3 49 14 94 76 107 147 15 79 8 11259 -7 11313 -43
155 -55 239 -63 420 -4 109 -15 219 -24 257 -8 37 -25 167 -36 290 -12 123
-28 270 -36 328 -8 58 -17 182 -19 275 -9 299 -38 449 -106 555 -29 45 -49
103 -58 170 -6 41 -20 134 -30 205 -11 72 -27 188 -35 258 -16 136 -33 180
-102 253 -45 48 -87 206 -104 387 -12 132 -27 167 -99 225 -31 25 -43 45 -60
98 -12 37 -21 74 -21 83 0 9 -13 62 -28 117 -26 91 -35 110 -89 175 -59 73
-97 158 -133 298 -13 51 -47 107 -99 165 -37 40 -45 58 -102 206 -23 61 -39
84 -83 125 -54 50 -62 65 -156 291 -4 12 -28 34 -53 49 -43 27 -127 135 -127
163 0 20 -78 99 -105 106 -22 6 -42 32 -117 164 -15 26 -47 67 -73 92 -25 25
-85 90 -134 145 -108 121 -429 435 -445 435 -15 0 -103 76 -118 102 -10 16
-26 32 -36 35 -9 3 -33 19 -52 34 -20 15 -51 35 -70 44 -20 9 -49 37 -68 66
-34 52 -94 101 -152 126 -46 20 -102 70 -117 104 -13 32 -115 87 -197 108 -76
19 -122 47 -153 93 -35 53 -147 112 -240 127 -74 12 -150 53 -172 94 -26 48
-189 116 -278 117 -53 0 -125 38 -170 89 -52 59 -114 81 -313 111 -149 22
-220 49 -280 106 -57 54 -124 71 -403 99 -151 15 -293 35 -355 50 -57 14 -113
25 -124 25 -12 0 -55 17 -97 37 -42 20 -92 40 -111 44 -19 5 -66 15 -105 24
-124 28 -848 39 -1780 25z"/>
<path d="M9345 28547 c-51 -20 -74 -42 -90 -87 -13 -38 -15 -1065 -15 -9360 0
-8351 2 -9326 15 -9399 9 -45 24 -100 34 -124 16 -37 25 -44 67 -58 42 -13 59
-14 119 -3 54 10 698 13 2900 13 2437 1 2843 -1 2920 -14 164 -26 203 2 231
170 19 111 19 18717 1 18780 -10 34 -20 44 -66 68 l-55 27 -3015 -1 c-2283 0
-3023 -3 -3046 -12z"/>
</g>
</svg>
